<?xml version="1.0" standalone="no"?>
<!DOCTYPE svg PUBLIC "-//W3C//DTD SVG 20010904//EN"
 "http://www.w3.org/TR/2001/REC-SVG-20010904/DTD/svg10.dtd">
<svg version="1.0" xmlns="http://www.w3.org/2000/svg"
 width="512.000000pt" height="512.000000pt" viewBox="0 0 512.000000 512.000000"
 preserveAspectRatio="xMidYMid meet">
<metadata>
Created by potrace 1.14, written by Peter Selinger 2001-2017
</metadata>
<g transform="translate(0.000000,512.000000) scale(0.100000,-0.100000)"
fill="#000000" stroke="none">
<path d="M2330 5080 c-30 -5 -77 -11 -105 -14 -358 -43 -774 -201 -1080 -410
-311 -213 -608 -533 -780 -841 -85 -151 -160 -322 -208 -470 -30 -92 -74 -261
-82 -320 -4 -22 -8 -47 -10 -55 -2 -8 -7 -42 -11 -75 -3 -33 -9 -69 -11 -80
-12 -48 -9 -436 3 -535 15 -114 49 -300 65 -352 6 -18 12 -41 14 -50 8 -38 85
-258 105 -303 80 -177 134 -276 230 -420 183 -276 422 -513 707 -704 276 -184
564 -301 923 -376 50 -10 145 -23 250 -34 76 -8 444 -6 490 3 14 2 61 10 105
16 91 14 81 12 200 39 95 21 312 87 329 99 6 4 29 14 51 21 56 19 284 134 363
183 373 233 668 538 879 908 145 255 264 591 299 850 3 25 8 47 9 50 9 15 20
206 20 355 0 180 -7 267 -30 405 -23 131 -25 142 -37 185 -5 22 -11 47 -13 55
-2 8 -18 60 -35 115 -94 293 -244 573 -437 815 -84 105 -283 306 -383 386
-180 145 -412 284 -595 358 -38 16 -83 34 -100 41 -46 20 -255 84 -310 95 -96
20 -251 49 -295 55 -71 9 -459 13 -520 5z"/>
</g>
</svg>
