<?xml version="1.0" standalone="no"?>
<!DOCTYPE svg PUBLIC "-//W3C//DTD SVG 20010904//EN"
 "http://www.w3.org/TR/2001/REC-SVG-20010904/DTD/svg10.dtd">
<svg version="1.0" xmlns="http://www.w3.org/2000/svg"
 width="500.000000pt" height="500.000000pt" viewBox="0 0 500.000000 500.000000"
 preserveAspectRatio="xMidYMid meet">
<metadata>
Created by potrace 1.14, written by Peter Selinger 2001-2017
</metadata>
<g transform="translate(0.000000,500.000000) scale(0.100000,-0.100000)"
fill="#000000" stroke="none">
<path d="M2230 4984 c-106 -12 -129 -16 -230 -35 -89 -17 -92 -17 -201 -50
-296 -87 -565 -225 -829 -423 -108 -81 -329 -297 -412 -401 -198 -252 -372
-577 -448 -840 -26 -93 -59 -223 -65 -260 -4 -22 -9 -52 -11 -66 -22 -127 -31
-269 -29 -454 2 -115 5 -219 8 -230 2 -11 8 -42 11 -70 12 -82 16 -106 37
-200 12 -49 22 -94 23 -100 10 -45 76 -238 107 -314 125 -299 301 -562 539
-801 358 -361 775 -585 1280 -691 97 -20 128 -25 260 -39 80 -8 475 -6 500 3
8 3 34 8 58 11 109 15 134 19 236 42 209 46 482 152 662 255 554 319 963 820
1154 1416 31 97 36 114 46 163 3 14 9 41 14 60 12 46 20 86 26 135 2 22 7 45
9 52 11 33 20 209 18 388 -1 220 -16 351 -59 535 -28 117 -42 170 -54 195 -5
11 -12 31 -15 45 -12 47 -57 155 -111 269 -239 504 -660 926 -1177 1178 -155
76 -462 176 -607 198 -25 4 -52 8 -60 10 -38 6 -118 18 -150 22 -90 11 -434 9
-530 -3z"/>
</g>
</svg>
