<?xml version="1.0" standalone="no"?>
<!DOCTYPE svg PUBLIC "-//W3C//DTD SVG 20010904//EN"
 "http://www.w3.org/TR/2001/REC-SVG-20010904/DTD/svg10.dtd">
<svg version="1.0" xmlns="http://www.w3.org/2000/svg"
 width="512.000000pt" height="512.000000pt" viewBox="0 0 512.000000 512.000000"
 preserveAspectRatio="xMidYMid meet">
<metadata>
Created by potrace 1.14, written by Peter Selinger 2001-2017
</metadata>
<g transform="translate(0.000000,512.000000) scale(0.100000,-0.100000)"
fill="#000000" stroke="none">
<path d="M2110 2560 l0 -2030 65 0 65 0 0 2030 0 2030 -65 0 -65 0 0 -2030z"/>
<path d="M1760 4215 c-347 -49 -602 -163 -776 -348 -148 -157 -214 -326 -214
-547 0 -444 227 -718 713 -860 105 -30 323 -73 435 -86 l62 -7 0 272 0 271
-22 4 c-13 3 -75 14 -138 26 -325 62 -462 171 -462 366 1 221 210 381 525 401
l97 6 0 259 0 258 -62 -1 c-35 -1 -106 -7 -158 -14z"/>
<path d="M2868 3697 l-477 -532 -1 -561 0 -562 538 -570 537 -571 393 0 c381
-1 393 0 390 18 -2 10 -361 393 -798 851 -437 458 -796 836 -798 840 -1 4 328
363 733 799 404 435 735 798 735 806 0 13 -53 15 -387 15 l-388 -1 -477 -532z"/>
<path d="M885 1805 c-132 -69 -244 -126 -249 -128 -6 -2 13 -49 41 -104 172
-342 459 -550 871 -632 92 -19 307 -41 393 -41 l39 0 0 265 0 265 -26 0 c-15
0 -74 7 -133 15 -315 46 -554 199 -668 428 l-28 56 -240 -124z"/>
</g>
</svg>
